<mxfile host="app.diagrams.net" modified="2024-06-20T04:42:51.765Z" agent="Mozilla/5.0 (X11; Linux x86_64) AppleWebKit/537.36 (KHTML, like Gecko) Chrome/126.0.0.0 Safari/537.36" etag="WQESJi111hLX8SmqUnXf" version="24.5.3" type="github">
  <diagram name="Page-1" id="pUJUgK8hR9QI15zZ7cge">
    <mxGraphModel dx="1687" dy="965" grid="1" gridSize="10" guides="1" tooltips="1" connect="1" arrows="1" fold="1" page="1" pageScale="1" pageWidth="850" pageHeight="1100" math="0" shadow="0">
      <root>
        <mxCell id="0" />
        <mxCell id="1" parent="0" />
        <mxCell id="zpP05A4RWX_OMCWbU6EZ-24" value="" style="rounded=0;whiteSpace=wrap;html=1;" parent="1" vertex="1">
          <mxGeometry x="540" y="390" width="330" height="490" as="geometry" />
        </mxCell>
        <mxCell id="1pQ-WaWnxOZxjhe7-Tj_-1" value="Portal" style="shape=cylinder3;whiteSpace=wrap;html=1;boundedLbl=1;backgroundOutline=1;size=15;" parent="1" vertex="1">
          <mxGeometry x="210" y="420" width="60" height="80" as="geometry" />
        </mxCell>
        <mxCell id="1pQ-WaWnxOZxjhe7-Tj_-2" value="Discord" style="shape=cylinder3;whiteSpace=wrap;html=1;boundedLbl=1;backgroundOutline=1;size=15;" parent="1" vertex="1">
          <mxGeometry x="390" y="420" width="60" height="80" as="geometry" />
        </mxCell>
        <mxCell id="1pQ-WaWnxOZxjhe7-Tj_-3" value="GitHub" style="shape=cylinder3;whiteSpace=wrap;html=1;boundedLbl=1;backgroundOutline=1;size=15;" parent="1" vertex="1">
          <mxGeometry x="300" y="420" width="60" height="80" as="geometry" />
        </mxCell>
        <mxCell id="1pQ-WaWnxOZxjhe7-Tj_-4" value="Wiki" style="shape=cylinder3;whiteSpace=wrap;html=1;boundedLbl=1;backgroundOutline=1;size=15;" parent="1" vertex="1">
          <mxGeometry x="110" y="420" width="60" height="80" as="geometry" />
        </mxCell>
        <mxCell id="1pQ-WaWnxOZxjhe7-Tj_-5" value="&lt;h1 style=&quot;margin-top: 0px;&quot;&gt;Data Source&lt;/h1&gt;" style="text;html=1;whiteSpace=wrap;overflow=hidden;rounded=0;" parent="1" vertex="1">
          <mxGeometry x="110" y="340" width="150" height="40" as="geometry" />
        </mxCell>
        <mxCell id="1pQ-WaWnxOZxjhe7-Tj_-8" value="Whatsapp" style="rounded=0;whiteSpace=wrap;html=1;" parent="1" vertex="1">
          <mxGeometry x="590" y="1370" width="120" height="60" as="geometry" />
        </mxCell>
        <mxCell id="1pQ-WaWnxOZxjhe7-Tj_-9" value="Discord" style="rounded=0;whiteSpace=wrap;html=1;" parent="1" vertex="1">
          <mxGeometry x="750" y="1370" width="120" height="60" as="geometry" />
        </mxCell>
        <mxCell id="1pQ-WaWnxOZxjhe7-Tj_-10" value="GitHub" style="rounded=0;whiteSpace=wrap;html=1;" parent="1" vertex="1">
          <mxGeometry x="910" y="1370" width="120" height="60" as="geometry" />
        </mxCell>
        <mxCell id="1pQ-WaWnxOZxjhe7-Tj_-11" value="Website" style="rounded=0;whiteSpace=wrap;html=1;" parent="1" vertex="1">
          <mxGeometry x="1070" y="1370" width="120" height="60" as="geometry" />
        </mxCell>
        <mxCell id="zpP05A4RWX_OMCWbU6EZ-7" style="edgeStyle=orthogonalEdgeStyle;rounded=0;orthogonalLoop=1;jettySize=auto;html=1;entryX=0.5;entryY=0;entryDx=0;entryDy=0;" parent="1" source="1pQ-WaWnxOZxjhe7-Tj_-12" target="1pQ-WaWnxOZxjhe7-Tj_-29" edge="1">
          <mxGeometry relative="1" as="geometry">
            <Array as="points">
              <mxPoint x="905" y="645" />
            </Array>
          </mxGeometry>
        </mxCell>
        <mxCell id="zpP05A4RWX_OMCWbU6EZ-10" style="edgeStyle=orthogonalEdgeStyle;rounded=0;orthogonalLoop=1;jettySize=auto;html=1;" parent="1" source="1pQ-WaWnxOZxjhe7-Tj_-12" target="zpP05A4RWX_OMCWbU6EZ-9" edge="1">
          <mxGeometry relative="1" as="geometry">
            <Array as="points">
              <mxPoint x="1000" y="645" />
              <mxPoint x="1000" y="195" />
            </Array>
          </mxGeometry>
        </mxCell>
        <mxCell id="zpP05A4RWX_OMCWbU6EZ-48" style="edgeStyle=orthogonalEdgeStyle;rounded=0;orthogonalLoop=1;jettySize=auto;html=1;" parent="1" source="1pQ-WaWnxOZxjhe7-Tj_-12" target="zpP05A4RWX_OMCWbU6EZ-45" edge="1">
          <mxGeometry relative="1" as="geometry">
            <Array as="points">
              <mxPoint x="1000" y="645" />
              <mxPoint x="1000" y="800" />
              <mxPoint x="1320" y="800" />
              <mxPoint x="1320" y="1185" />
            </Array>
          </mxGeometry>
        </mxCell>
        <mxCell id="1pQ-WaWnxOZxjhe7-Tj_-12" value="Vector Search" style="shape=cylinder3;whiteSpace=wrap;html=1;boundedLbl=1;backgroundOutline=1;size=15;" parent="1" vertex="1">
          <mxGeometry x="660" y="590" width="82.5" height="110" as="geometry" />
        </mxCell>
        <mxCell id="zpP05A4RWX_OMCWbU6EZ-6" style="edgeStyle=orthogonalEdgeStyle;rounded=0;orthogonalLoop=1;jettySize=auto;html=1;" parent="1" source="1pQ-WaWnxOZxjhe7-Tj_-13" target="1pQ-WaWnxOZxjhe7-Tj_-29" edge="1">
          <mxGeometry relative="1" as="geometry">
            <Array as="points">
              <mxPoint x="905" y="800" />
            </Array>
          </mxGeometry>
        </mxCell>
        <mxCell id="zpP05A4RWX_OMCWbU6EZ-19" style="edgeStyle=orthogonalEdgeStyle;rounded=0;orthogonalLoop=1;jettySize=auto;html=1;entryX=0;entryY=0.5;entryDx=0;entryDy=0;" parent="1" source="1pQ-WaWnxOZxjhe7-Tj_-13" target="zpP05A4RWX_OMCWbU6EZ-9" edge="1">
          <mxGeometry relative="1" as="geometry">
            <Array as="points">
              <mxPoint x="1000" y="800" />
              <mxPoint x="1000" y="195" />
            </Array>
          </mxGeometry>
        </mxCell>
        <mxCell id="zpP05A4RWX_OMCWbU6EZ-29" style="edgeStyle=orthogonalEdgeStyle;rounded=0;orthogonalLoop=1;jettySize=auto;html=1;" parent="1" source="1pQ-WaWnxOZxjhe7-Tj_-13" target="zpP05A4RWX_OMCWbU6EZ-27" edge="1">
          <mxGeometry relative="1" as="geometry" />
        </mxCell>
        <mxCell id="zpP05A4RWX_OMCWbU6EZ-49" style="edgeStyle=orthogonalEdgeStyle;rounded=0;orthogonalLoop=1;jettySize=auto;html=1;entryX=0;entryY=0.5;entryDx=0;entryDy=0;" parent="1" source="1pQ-WaWnxOZxjhe7-Tj_-13" target="zpP05A4RWX_OMCWbU6EZ-45" edge="1">
          <mxGeometry relative="1" as="geometry" />
        </mxCell>
        <mxCell id="1pQ-WaWnxOZxjhe7-Tj_-13" value="Knowledge Graph" style="shape=cylinder3;whiteSpace=wrap;html=1;boundedLbl=1;backgroundOutline=1;size=15;" parent="1" vertex="1">
          <mxGeometry x="660" y="750" width="80" height="100" as="geometry" />
        </mxCell>
        <mxCell id="1pQ-WaWnxOZxjhe7-Tj_-15" style="edgeStyle=orthogonalEdgeStyle;rounded=0;orthogonalLoop=1;jettySize=auto;html=1;entryX=0.5;entryY=1;entryDx=0;entryDy=0;entryPerimeter=0;" parent="1" source="1pQ-WaWnxOZxjhe7-Tj_-21" target="1pQ-WaWnxOZxjhe7-Tj_-4" edge="1">
          <mxGeometry relative="1" as="geometry">
            <mxPoint x="150" y="570" as="targetPoint" />
          </mxGeometry>
        </mxCell>
        <mxCell id="1pQ-WaWnxOZxjhe7-Tj_-16" style="edgeStyle=orthogonalEdgeStyle;rounded=0;orthogonalLoop=1;jettySize=auto;html=1;" parent="1" source="1pQ-WaWnxOZxjhe7-Tj_-27" target="1pQ-WaWnxOZxjhe7-Tj_-1" edge="1">
          <mxGeometry relative="1" as="geometry" />
        </mxCell>
        <mxCell id="1pQ-WaWnxOZxjhe7-Tj_-17" style="edgeStyle=orthogonalEdgeStyle;rounded=0;orthogonalLoop=1;jettySize=auto;html=1;" parent="1" source="1pQ-WaWnxOZxjhe7-Tj_-25" target="1pQ-WaWnxOZxjhe7-Tj_-3" edge="1">
          <mxGeometry relative="1" as="geometry">
            <Array as="points" />
          </mxGeometry>
        </mxCell>
        <mxCell id="1pQ-WaWnxOZxjhe7-Tj_-18" style="edgeStyle=orthogonalEdgeStyle;rounded=0;orthogonalLoop=1;jettySize=auto;html=1;" parent="1" source="1pQ-WaWnxOZxjhe7-Tj_-23" target="1pQ-WaWnxOZxjhe7-Tj_-2" edge="1">
          <mxGeometry relative="1" as="geometry" />
        </mxCell>
        <mxCell id="1pQ-WaWnxOZxjhe7-Tj_-19" style="edgeStyle=orthogonalEdgeStyle;rounded=0;orthogonalLoop=1;jettySize=auto;html=1;" parent="1" source="1pQ-WaWnxOZxjhe7-Tj_-14" target="1pQ-WaWnxOZxjhe7-Tj_-12" edge="1">
          <mxGeometry relative="1" as="geometry">
            <Array as="points">
              <mxPoint x="600" y="800" />
              <mxPoint x="600" y="645" />
            </Array>
          </mxGeometry>
        </mxCell>
        <mxCell id="1pQ-WaWnxOZxjhe7-Tj_-20" style="edgeStyle=orthogonalEdgeStyle;rounded=0;orthogonalLoop=1;jettySize=auto;html=1;" parent="1" source="1pQ-WaWnxOZxjhe7-Tj_-14" target="1pQ-WaWnxOZxjhe7-Tj_-13" edge="1">
          <mxGeometry relative="1" as="geometry" />
        </mxCell>
        <mxCell id="kscF2m6rAe0xiQWAf_8X-4" value="" style="edgeStyle=orthogonalEdgeStyle;rounded=0;orthogonalLoop=1;jettySize=auto;html=1;" edge="1" parent="1" source="1pQ-WaWnxOZxjhe7-Tj_-14" target="1pQ-WaWnxOZxjhe7-Tj_-25">
          <mxGeometry relative="1" as="geometry" />
        </mxCell>
        <mxCell id="1pQ-WaWnxOZxjhe7-Tj_-14" value="Aggregator Agent" style="rhombus;whiteSpace=wrap;html=1;" parent="1" vertex="1">
          <mxGeometry x="260" y="725" width="140" height="150" as="geometry" />
        </mxCell>
        <mxCell id="1pQ-WaWnxOZxjhe7-Tj_-22" value="" style="edgeStyle=orthogonalEdgeStyle;rounded=0;orthogonalLoop=1;jettySize=auto;html=1;entryX=0.5;entryY=1;entryDx=0;entryDy=0;entryPerimeter=0;" parent="1" source="1pQ-WaWnxOZxjhe7-Tj_-14" target="1pQ-WaWnxOZxjhe7-Tj_-21" edge="1">
          <mxGeometry relative="1" as="geometry">
            <mxPoint x="140" y="550" as="targetPoint" />
            <mxPoint x="290" y="690" as="sourcePoint" />
          </mxGeometry>
        </mxCell>
        <mxCell id="1pQ-WaWnxOZxjhe7-Tj_-21" value="Scrapper" style="rhombus;whiteSpace=wrap;html=1;" parent="1" vertex="1">
          <mxGeometry x="100" y="550" width="80" height="80" as="geometry" />
        </mxCell>
        <mxCell id="1pQ-WaWnxOZxjhe7-Tj_-24" value="" style="edgeStyle=orthogonalEdgeStyle;rounded=0;orthogonalLoop=1;jettySize=auto;html=1;exitX=1;exitY=0.5;exitDx=0;exitDy=0;" parent="1" source="1pQ-WaWnxOZxjhe7-Tj_-14" target="1pQ-WaWnxOZxjhe7-Tj_-23" edge="1">
          <mxGeometry relative="1" as="geometry">
            <mxPoint x="370" y="690" as="sourcePoint" />
            <mxPoint x="470" y="550" as="targetPoint" />
            <Array as="points">
              <mxPoint x="420" y="800" />
            </Array>
          </mxGeometry>
        </mxCell>
        <mxCell id="1pQ-WaWnxOZxjhe7-Tj_-23" value="Discord&lt;div&gt;Bot&lt;/div&gt;" style="rhombus;whiteSpace=wrap;html=1;" parent="1" vertex="1">
          <mxGeometry x="380" y="550" width="80" height="80" as="geometry" />
        </mxCell>
        <mxCell id="1pQ-WaWnxOZxjhe7-Tj_-25" value="GitHub&lt;br&gt;App" style="rhombus;whiteSpace=wrap;html=1;" parent="1" vertex="1">
          <mxGeometry x="290" y="550" width="80" height="80" as="geometry" />
        </mxCell>
        <mxCell id="1pQ-WaWnxOZxjhe7-Tj_-28" value="" style="edgeStyle=orthogonalEdgeStyle;rounded=0;orthogonalLoop=1;jettySize=auto;html=1;" parent="1" source="1pQ-WaWnxOZxjhe7-Tj_-14" target="1pQ-WaWnxOZxjhe7-Tj_-27" edge="1">
          <mxGeometry relative="1" as="geometry">
            <mxPoint x="280" y="715" as="sourcePoint" />
            <mxPoint x="240" y="510" as="targetPoint" />
            <Array as="points">
              <mxPoint x="240" y="800" />
            </Array>
          </mxGeometry>
        </mxCell>
        <mxCell id="1pQ-WaWnxOZxjhe7-Tj_-27" value="API" style="rhombus;whiteSpace=wrap;html=1;" parent="1" vertex="1">
          <mxGeometry x="200" y="550" width="80" height="80" as="geometry" />
        </mxCell>
        <mxCell id="zpP05A4RWX_OMCWbU6EZ-2" style="edgeStyle=orthogonalEdgeStyle;rounded=0;orthogonalLoop=1;jettySize=auto;html=1;" parent="1" source="1pQ-WaWnxOZxjhe7-Tj_-29" target="1pQ-WaWnxOZxjhe7-Tj_-8" edge="1">
          <mxGeometry relative="1" as="geometry" />
        </mxCell>
        <mxCell id="zpP05A4RWX_OMCWbU6EZ-3" style="edgeStyle=orthogonalEdgeStyle;rounded=0;orthogonalLoop=1;jettySize=auto;html=1;" parent="1" source="1pQ-WaWnxOZxjhe7-Tj_-29" target="1pQ-WaWnxOZxjhe7-Tj_-9" edge="1">
          <mxGeometry relative="1" as="geometry">
            <Array as="points">
              <mxPoint x="810" y="1255" />
            </Array>
          </mxGeometry>
        </mxCell>
        <mxCell id="zpP05A4RWX_OMCWbU6EZ-4" style="edgeStyle=orthogonalEdgeStyle;rounded=0;orthogonalLoop=1;jettySize=auto;html=1;" parent="1" source="1pQ-WaWnxOZxjhe7-Tj_-29" target="1pQ-WaWnxOZxjhe7-Tj_-10" edge="1">
          <mxGeometry relative="1" as="geometry">
            <Array as="points">
              <mxPoint x="970" y="1330" />
              <mxPoint x="970" y="1330" />
            </Array>
          </mxGeometry>
        </mxCell>
        <mxCell id="zpP05A4RWX_OMCWbU6EZ-5" style="edgeStyle=orthogonalEdgeStyle;rounded=0;orthogonalLoop=1;jettySize=auto;html=1;" parent="1" source="1pQ-WaWnxOZxjhe7-Tj_-29" target="1pQ-WaWnxOZxjhe7-Tj_-11" edge="1">
          <mxGeometry relative="1" as="geometry" />
        </mxCell>
        <mxCell id="1pQ-WaWnxOZxjhe7-Tj_-29" value="Assistant&lt;div&gt;(Search Engine)&lt;/div&gt;" style="rhombus;whiteSpace=wrap;html=1;" parent="1" vertex="1">
          <mxGeometry x="840" y="1190" width="130" height="130" as="geometry" />
        </mxCell>
        <mxCell id="zpP05A4RWX_OMCWbU6EZ-8" value="Long Term Memory" style="shape=cylinder3;whiteSpace=wrap;html=1;boundedLbl=1;backgroundOutline=1;size=15;" parent="1" vertex="1">
          <mxGeometry x="1470" y="150" width="65.63" height="90" as="geometry" />
        </mxCell>
        <mxCell id="zpP05A4RWX_OMCWbU6EZ-12" style="edgeStyle=orthogonalEdgeStyle;rounded=0;orthogonalLoop=1;jettySize=auto;html=1;strokeColor=default;startArrow=classic;startFill=1;" parent="1" source="zpP05A4RWX_OMCWbU6EZ-9" target="zpP05A4RWX_OMCWbU6EZ-8" edge="1">
          <mxGeometry relative="1" as="geometry" />
        </mxCell>
        <mxCell id="zpP05A4RWX_OMCWbU6EZ-17" style="edgeStyle=orthogonalEdgeStyle;rounded=0;orthogonalLoop=1;jettySize=auto;html=1;" parent="1" source="zpP05A4RWX_OMCWbU6EZ-9" target="zpP05A4RWX_OMCWbU6EZ-16" edge="1">
          <mxGeometry relative="1" as="geometry" />
        </mxCell>
        <mxCell id="zpP05A4RWX_OMCWbU6EZ-32" value="Daily Advise" style="edgeLabel;html=1;align=center;verticalAlign=middle;resizable=0;points=[];" parent="zpP05A4RWX_OMCWbU6EZ-17" vertex="1" connectable="0">
          <mxGeometry x="0.0391" y="2" relative="1" as="geometry">
            <mxPoint as="offset" />
          </mxGeometry>
        </mxCell>
        <mxCell id="zpP05A4RWX_OMCWbU6EZ-9" value="Auto GPT" style="ellipse;whiteSpace=wrap;html=1;aspect=fixed;" parent="1" vertex="1">
          <mxGeometry x="1340" y="155" width="80" height="80" as="geometry" />
        </mxCell>
        <mxCell id="zpP05A4RWX_OMCWbU6EZ-14" value="&lt;h1 style=&quot;margin-top: 0px;&quot;&gt;Strategic Advisor&lt;/h1&gt;" style="text;html=1;whiteSpace=wrap;overflow=hidden;rounded=0;" parent="1" vertex="1">
          <mxGeometry x="1080" y="10" width="207.5" height="60" as="geometry" />
        </mxCell>
        <mxCell id="zpP05A4RWX_OMCWbU6EZ-16" value="Discord" style="rounded=0;whiteSpace=wrap;html=1;" parent="1" vertex="1">
          <mxGeometry x="1320" y="15" width="120" height="60" as="geometry" />
        </mxCell>
        <mxCell id="zpP05A4RWX_OMCWbU6EZ-20" value="&lt;h1 style=&quot;margin-top: 0px;&quot;&gt;Search Engine&lt;/h1&gt;" style="text;html=1;whiteSpace=wrap;overflow=hidden;rounded=0;" parent="1" vertex="1">
          <mxGeometry x="440" y="1260" width="180" height="60" as="geometry" />
        </mxCell>
        <mxCell id="zpP05A4RWX_OMCWbU6EZ-22" value="GitHub" style="rounded=0;whiteSpace=wrap;html=1;" parent="1" vertex="1">
          <mxGeometry x="1782" y="15" width="120" height="60" as="geometry" />
        </mxCell>
        <mxCell id="zpP05A4RWX_OMCWbU6EZ-25" value="&lt;h1 style=&quot;margin-top: 0px;&quot;&gt;Database&lt;/h1&gt;" style="text;html=1;whiteSpace=wrap;overflow=hidden;rounded=0;" parent="1" vertex="1">
          <mxGeometry x="550" y="400" width="150" height="40" as="geometry" />
        </mxCell>
        <mxCell id="zpP05A4RWX_OMCWbU6EZ-28" style="edgeStyle=orthogonalEdgeStyle;rounded=0;orthogonalLoop=1;jettySize=auto;html=1;entryX=0.5;entryY=1;entryDx=0;entryDy=0;startArrow=classic;startFill=1;" parent="1" source="zpP05A4RWX_OMCWbU6EZ-27" target="zpP05A4RWX_OMCWbU6EZ-22" edge="1">
          <mxGeometry relative="1" as="geometry" />
        </mxCell>
        <mxCell id="zpP05A4RWX_OMCWbU6EZ-31" value="Interacting with Projects Kanban" style="edgeLabel;html=1;align=center;verticalAlign=middle;resizable=0;points=[];" parent="zpP05A4RWX_OMCWbU6EZ-28" vertex="1" connectable="0">
          <mxGeometry x="-0.0995" y="5" relative="1" as="geometry">
            <mxPoint y="-1" as="offset" />
          </mxGeometry>
        </mxCell>
        <mxCell id="zpP05A4RWX_OMCWbU6EZ-27" value="Project Management Assistant" style="rhombus;whiteSpace=wrap;html=1;" parent="1" vertex="1">
          <mxGeometry x="1770" y="170" width="145" height="145" as="geometry" />
        </mxCell>
        <mxCell id="zpP05A4RWX_OMCWbU6EZ-33" value="&lt;h1 style=&quot;margin-top: 0px;&quot;&gt;Project Assitant&lt;/h1&gt;" style="text;html=1;whiteSpace=wrap;overflow=hidden;rounded=0;" parent="1" vertex="1">
          <mxGeometry x="1570" width="240" height="60" as="geometry" />
        </mxCell>
        <mxCell id="zpP05A4RWX_OMCWbU6EZ-34" value="Helping organize and breakdown task" style="text;html=1;align=left;verticalAlign=middle;whiteSpace=wrap;rounded=0;" parent="1" vertex="1">
          <mxGeometry x="1570" y="30" width="130" height="40" as="geometry" />
        </mxCell>
        <mxCell id="zpP05A4RWX_OMCWbU6EZ-35" value="Giving specific advice based on organization context and knowledge" style="text;html=1;align=left;verticalAlign=middle;whiteSpace=wrap;rounded=0;" parent="1" vertex="1">
          <mxGeometry x="1080" y="40" width="210" height="40" as="geometry" />
        </mxCell>
        <mxCell id="zpP05A4RWX_OMCWbU6EZ-37" value="Central knowledge for LLM" style="text;html=1;align=left;verticalAlign=middle;whiteSpace=wrap;rounded=0;" parent="1" vertex="1">
          <mxGeometry x="550" y="430" width="160" height="30" as="geometry" />
        </mxCell>
        <mxCell id="zpP05A4RWX_OMCWbU6EZ-38" value="Assistant for common QNA and Project status" style="text;html=1;align=left;verticalAlign=middle;whiteSpace=wrap;rounded=0;" parent="1" vertex="1">
          <mxGeometry x="440" y="1290" width="130" height="40" as="geometry" />
        </mxCell>
        <mxCell id="zpP05A4RWX_OMCWbU6EZ-47" style="edgeStyle=orthogonalEdgeStyle;rounded=0;orthogonalLoop=1;jettySize=auto;html=1;entryX=0.5;entryY=1;entryDx=0;entryDy=0;" parent="1" source="zpP05A4RWX_OMCWbU6EZ-40" target="zpP05A4RWX_OMCWbU6EZ-45" edge="1">
          <mxGeometry relative="1" as="geometry" />
        </mxCell>
        <mxCell id="zpP05A4RWX_OMCWbU6EZ-54" style="edgeStyle=orthogonalEdgeStyle;rounded=0;orthogonalLoop=1;jettySize=auto;html=1;" parent="1" source="zpP05A4RWX_OMCWbU6EZ-40" target="zpP05A4RWX_OMCWbU6EZ-53" edge="1">
          <mxGeometry relative="1" as="geometry" />
        </mxCell>
        <mxCell id="zpP05A4RWX_OMCWbU6EZ-55" value="Aggregate" style="edgeLabel;html=1;align=center;verticalAlign=middle;resizable=0;points=[];" parent="zpP05A4RWX_OMCWbU6EZ-54" vertex="1" connectable="0">
          <mxGeometry x="0.158" relative="1" as="geometry">
            <mxPoint as="offset" />
          </mxGeometry>
        </mxCell>
        <mxCell id="zpP05A4RWX_OMCWbU6EZ-40" value="CV &amp;amp; Info&lt;div&gt;&amp;nbsp;Aggregator&lt;/div&gt;" style="rhombus;whiteSpace=wrap;html=1;" parent="1" vertex="1">
          <mxGeometry x="1910" y="1320" width="120" height="120" as="geometry" />
        </mxCell>
        <mxCell id="zpP05A4RWX_OMCWbU6EZ-43" style="edgeStyle=orthogonalEdgeStyle;rounded=0;orthogonalLoop=1;jettySize=auto;html=1;entryX=0;entryY=0.5;entryDx=0;entryDy=0;" parent="1" source="zpP05A4RWX_OMCWbU6EZ-41" target="zpP05A4RWX_OMCWbU6EZ-40" edge="1">
          <mxGeometry relative="1" as="geometry" />
        </mxCell>
        <mxCell id="zpP05A4RWX_OMCWbU6EZ-41" value="LinkedIn" style="rounded=0;whiteSpace=wrap;html=1;" parent="1" vertex="1">
          <mxGeometry x="1830" y="1500" width="120" height="60" as="geometry" />
        </mxCell>
        <mxCell id="zpP05A4RWX_OMCWbU6EZ-44" style="edgeStyle=orthogonalEdgeStyle;rounded=0;orthogonalLoop=1;jettySize=auto;html=1;entryX=1;entryY=0.5;entryDx=0;entryDy=0;" parent="1" source="zpP05A4RWX_OMCWbU6EZ-42" target="zpP05A4RWX_OMCWbU6EZ-40" edge="1">
          <mxGeometry relative="1" as="geometry" />
        </mxCell>
        <mxCell id="zpP05A4RWX_OMCWbU6EZ-42" value="Documents" style="rounded=0;whiteSpace=wrap;html=1;" parent="1" vertex="1">
          <mxGeometry x="1990" y="1500" width="120" height="60" as="geometry" />
        </mxCell>
        <mxCell id="zpP05A4RWX_OMCWbU6EZ-51" style="edgeStyle=orthogonalEdgeStyle;rounded=0;orthogonalLoop=1;jettySize=auto;html=1;entryX=0.5;entryY=1;entryDx=0;entryDy=0;" parent="1" source="zpP05A4RWX_OMCWbU6EZ-45" target="zpP05A4RWX_OMCWbU6EZ-50" edge="1">
          <mxGeometry relative="1" as="geometry" />
        </mxCell>
        <mxCell id="zpP05A4RWX_OMCWbU6EZ-45" value="Eval A.I" style="rhombus;whiteSpace=wrap;html=1;" parent="1" vertex="1">
          <mxGeometry x="1905" y="1120" width="130" height="130" as="geometry" />
        </mxCell>
        <mxCell id="zpP05A4RWX_OMCWbU6EZ-50" value="Ranked List" style="rounded=1;whiteSpace=wrap;html=1;" parent="1" vertex="1">
          <mxGeometry x="1910" y="1020" width="120" height="60" as="geometry" />
        </mxCell>
        <mxCell id="zpP05A4RWX_OMCWbU6EZ-52" value="&lt;h1 style=&quot;margin-top: 0px;&quot;&gt;HR Talent Assist&lt;/h1&gt;&lt;p&gt;Using deduction and aggregated knowledge to determine if a candidate is good fit&lt;/p&gt;" style="text;html=1;whiteSpace=wrap;overflow=hidden;rounded=0;" parent="1" vertex="1">
          <mxGeometry x="2050" y="1020" width="235" height="120" as="geometry" />
        </mxCell>
        <mxCell id="zpP05A4RWX_OMCWbU6EZ-53" value="Social Media" style="shape=process;whiteSpace=wrap;html=1;backgroundOutline=1;" parent="1" vertex="1">
          <mxGeometry x="2152.5" y="1350" width="120" height="60" as="geometry" />
        </mxCell>
      </root>
    </mxGraphModel>
  </diagram>
</mxfile>
